<svg width="600" height="150" viewBox="0 0 600 150" fill="none" xmlns="http://www.w3.org/2000/svg">
<path d="M0 38C0 32.4772 4.47715 28 10 28H427C432.523 28 437 32.4772 437 38V51H0V38Z" fill="#FCA311"/>
<path d="M266 47C266 40.8279 264.784 34.7162 262.422 29.0139C260.06 23.3116 256.598 18.1303 252.234 13.766C247.87 9.40163 242.688 5.93963 236.986 3.57766C231.284 1.21569 225.172 -2.69792e-07 219 0C212.828 2.69792e-07 206.716 1.21569 201.014 3.57766C195.312 5.93963 190.13 9.40163 185.766 13.766C181.402 18.1303 177.94 23.3116 175.578 29.0139C173.216 34.7162 172 40.8279 172 47L219 47H266Z" fill="#FCA311"/>
</svg>
