<svg
  viewBox="0 0 32 32"
  fill="#818CFA"
  xmlns="http://www.w3.org/2000/svg"
>
  <path
    d="M20.6667 0C19.7826 0 18.9348 0.351189 18.3096 0.976311C17.6845
    1.60143 17.3333 2.44928 17.3333 3.33333C17.3333 4.21739 17.6845
    5.06523 18.3096 5.69036C18.9348 6.31548 19.7826 6.66667 20.6667
    6.66667C21.5507 6.66667 22.3986 6.31548 23.0237 5.69036C23.6488
    5.06523 24 4.21739 24 3.33333C24 2.44928 23.6488 1.60143 23.0237
    0.976311C22.3986 0.351189 21.5507 0 20.6667 0ZM16.6667
    6.66667C15.8176 6.66667 14.9698 6.991 14.3203 7.63542C14.3198
    7.6359 14.3182 7.63493 14.3177 7.63542L14.3099 7.64323L9.03385
    12.9219C9.01364 12.9416 8.99367 12.9616 8.97396 12.9818L8.89844
    13.0573V13.0625C8.32248 13.6785 8.00143 14.49 8 15.3333C8.0009
    15.9016 8.14708 16.4603 8.42466 16.9562C8.70223 17.4521 9.10198
    17.8688 9.58594 18.1667V18.1745L14.9922 21.3333L14.6797
    27.8229C14.6443 27.9994 14.645 28.1813 14.6818 28.3575C14.7186 28.5338
    14.7906 28.7007 14.8937 28.8484C14.9967 28.996 15.1286 29.1212 15.2814
    29.2165C15.4341 29.3118 15.6046 29.3752 15.7825 29.4028C15.9604
    29.4304 16.1421 29.4217 16.3165 29.3773C16.491 29.3328 16.6546 29.2535
    16.7976 29.144C16.9405 29.0346 17.0599 28.8974 17.1484 28.7406C17.2369
    28.5838 17.2927 28.4107 17.3125 28.2318L18.6458 20.7057C18.6838 20.493
    18.6695 20.2743 18.6042 20.0683C18.5388 19.8624 18.4244 19.6754
    18.2708 19.5234L18.0964 19.349L14.7604 15.8828L18.5052 12.2422L21.5
    15.3411L21.612 15.4844C21.6961 15.5919 21.7962 15.6859 21.9089
    15.763C21.9106 15.7639 21.9123 15.7648 21.9141 15.7656V15.7682C22.1359
    15.9195 22.3982 16.0003 22.6667 16H28C28.1767 16.0025 28.3521 15.9699
    28.5161 15.904C28.68 15.8381 28.8292 15.7403 28.9551 15.6162C29.0809
    15.4922 29.1808 15.3443 29.249 15.1813C29.3172 15.0183 29.3523 14.8434
    29.3523 14.6667C29.3523 14.49 29.3172 14.315 29.249 14.152C29.1808
    13.989 29.0809 13.8412 28.9551 13.7171C28.8292 13.5931 28.68 13.4952
    28.5161 13.4294C28.3521 13.3635 28.1767 13.3308 28
    13.3333H23.3203L22.8542 12.7344L19.1901 7.82292H19.1667C19.1157
    7.76317 19.0836 7.7033 19.0234 7.64323C18.3721 6.99256 17.5198 6.66667
    16.6667 6.66667ZM6 20C2.70208 20 0 22.7021 0 26C0 29.2979 2.70208 32 6
    32C9.29792 32 12 29.2979 12 26C12 22.7021 9.29792 20 6 20ZM26
    20C22.7021 20 20 22.7021 20 26C20 29.2979 22.7021 32 26 32C29.2979 32
    32 29.2979 32 26C32 22.7021 29.2979 20 26 20ZM6 22.6667C7.85674
    22.6667 9.33333 24.1433 9.33333 26C9.33333 27.8567 7.85674 29.3333 6
    29.3333C4.14326 29.3333 2.66667 27.8567 2.66667 26C2.66667 24.1433
    4.14326 22.6667 6 22.6667ZM26 22.6667C27.8567 22.6667 29.3333 24.1433
    29.3333 26C29.3333 27.8567 27.8567 29.3333 26 29.3333C24.1433 29.3333
    22.6667 27.8567 22.6667 26C22.6667 24.1433 24.1433 22.6667 26
    22.6667Z"
  />
</svg>
